# xmcd
#
# Track frame offsets: 
#        150
#        19923
#        39946
#        61815
#        81678
#        102057
#        119315
#        143992
#        165116
#        182980
#        201248
#        216758
#        221679
#        240428
#        256070
#
# Disc length: 3681 seconds
#
# Revision: 0
# Processed by: cddbd v1.5.2PL0 Copyright (c) Steve Scherf et al.
# Submitted via: ExactAudioCopy v1.3
#
DISCID=ce0e5f0f
DTITLE=堀内孝雄 - Takao Horiuchi - Best Selection as time goes by
DYEAR=2009
DGENRE=J-Pop
TTITLE0=憧れ遊び
TTITLE1=愛しき日々
TTITLE2=遥かな轍
TTITLE3=ガキの頃のように
TTITLE4=冗談じゃねえ
TTITLE5=恋唄綴り
TTITLE6=都会の天使たち
TTITLE7=影法師
TTITLE8=東京発
TTITLE9=酔いれんぼ
TTITLE10=竹とんぼ
TTITLE11=時代屋の恋
TTITLE12=河
TTITLE13=カラスの女房
TTITLE14=ふたりで竜馬をやろうじゃないか
EXTD=
EXTT0=
EXTT1=
EXTT2=
EXTT3=
EXTT4=
EXTT5=
EXTT6=
EXTT7=
EXTT8=
EXTT9=
EXTT10=
EXTT11=
EXTT12=
EXTT13=
EXTT14=
PLAYORDER=
